<svg xmlns="http://www.w3.org/2000/svg" width="271" height="271" viewBox="0 0 271 271">
    <g fill="none" fill-rule="evenodd">
        <path fill="#000" d="M50.625 168.75c27.96 0 50.625 22.666 50.625 50.625 0 27.96-22.666 50.625-50.625 50.625C22.665 270 0 247.334 0 219.375c0-27.96 22.666-50.625 50.625-50.625zM218.7 167.4c28.332 0 51.3 22.968 51.3 51.3 0 28.332-22.968 51.3-51.3 51.3-28.332 0-51.3-22.968-51.3-51.3 0-28.332 22.968-51.3 51.3-51.3zM50.625 178.875c-22.368 0-40.5 18.132-40.5 40.5s18.132 40.5 40.5 40.5 40.5-18.132 40.5-40.5-18.132-40.5-40.5-40.5zM218.7 177.66c-22.666 0-41.04 18.374-41.04 41.04s18.374 41.04 41.04 41.04 41.04-18.374 41.04-41.04-18.374-41.04-41.04-41.04z" transform="translate(.5)"/>
        <path fill="#33C4FF" d="M182.866 159.907l-51.13 75.35c-.193.286-.476.473-.785.551l-.001.442-24.766.002c1.053-3.474 1.79-7.085 2.177-10.801l16.043-.001-5.604-10.8-27.188-48.614-5.42 7.457c-2.844-2.207-5.899-4.156-9.128-5.812l8.745-12.023-5.509-9.85-.122-.235-1.204-2.473H60.75v-10.8h24.976l4.102 8.42 5.44 9.905 82.636-7.4-1.984-6.674L199.8 121.5v12.15l-11.22 7.898 6.666 24.035c-3.223 1.425-6.292 3.135-9.174 5.098l-3.206-10.774zm-9.357-5.444l-72.563 6.498 30.489 55.506 42.074-62.004z" transform="translate(.5)"/>
    </g>
</svg>
