<svg xmlns="http://www.w3.org/2000/svg" width="90" height="89" viewBox="0 0 90 89">
    <path fill="#FF8200" fill-rule="evenodd" d="M71.084 57.33v13.04c0 2.36-1.599 4.279-3.91 4.344l-.122.002H49.58v-8.152c4.342-1.373 7.748-4.85 9.023-9.234h12.481zm-38.803 0c1.232 4.234 4.451 7.622 8.581 9.086v8.3H23.928c-2.337 0-4.497-1.88-4.568-4.227l-.002-.12V57.33H32.28zm17.927-9.505l2.847 3.382-10.258 8.638-5.362-7.745 3.635-2.516 2.596 3.75 6.542-5.51zm-9.346-15.993v8.742c-3.985 1.412-7.123 4.616-8.444 8.643h-13.06V36.178c0-2.361 2.12-4.281 4.45-4.345l.12-.001h16.934zm26.19 0c2.335 0 3.975 1.878 4.03 4.222l.002.124v13.04H58.467c-1.37-4.176-4.692-7.466-8.887-8.793v-8.593h17.472zM59 11.495c2.376 0 4.543.978 6.011 2.786 1.326 1.58 2.095 3.688 2.095 5.947s-.697 4.293-2.095 5.873c-1.12 1.205-3.076 2.636-6.29 2.636H32.094c-3.214 0-5.17-1.431-6.22-2.711-1.327-1.505-2.096-3.615-2.096-5.874 0-4.215 2.866-8.657 8.106-8.657 3.705 0 7.758 2.258 12.021 6.851.56.528 1.047 1.13 1.536 1.733.49-.528.98-1.13 1.538-1.733 4.192-4.517 8.245-6.851 12.019-6.851zm-27.903 5.172c-2.607 0-3.326 2.352-3.326 3.675 0 1.691.978 3.529 3.588 3.529l11.804.268c-2.608-3.38-8.739-7.472-12.066-7.472zm28.694 0c-3.327 0-9.457 4.091-12.068 7.472l11.806-.268c2.608 0 3.587-1.838 3.587-3.529 0-1.323-.717-3.675-3.325-3.675z"/>
</svg>
