<svg xmlns="http://www.w3.org/2000/svg" width="60" height="60" viewBox="0 0 60 60">
    <g fill="none" fill-rule="evenodd">
        <g fill="#FF8200">
            <g>
                <g>
                    <g>
                        <path d="M30 30c1.367 0 2.627-.332 3.78-.996 1.152-.664 2.06-1.572 2.724-2.725.664-1.152.996-2.412.996-3.779s-.332-2.627-.996-3.78c-.664-1.152-1.572-2.06-2.725-2.724C32.627 15.332 31.367 15 30 15s-2.627.332-3.78.996c-1.152.664-2.06 1.572-2.724 2.725-.664 1.152-.996 2.412-.996 3.779s.332 2.627.996 3.78c.664 1.152 1.572 2.06 2.725 2.724 1.152.664 2.412.996 3.779.996zm10.2 15c.786 0 1.625-.275 2.175-.825.55-.55.825-1.218.825-2.004v-2.475c0-1.414-.354-2.73-1.06-3.948-.708-1.218-1.67-2.18-2.888-2.887-1.218-.707-2.534-1.061-3.948-1.061h-1.002c-1.375.629-2.81.943-4.302.943-1.493 0-2.927-.314-4.302-.943h-1.002c-1.414 0-2.73.354-3.948 1.06-1.218.708-2.18 1.67-2.887 2.888-.707 1.218-1.061 2.534-1.061 3.948v2.475c0 .786.275 1.454.825 2.004.55.55 1.39.825 2.175.825H40.2z" transform="translate(-20 -63) translate(0 -1) translate(20 64)"/>
                    </g>
                </g>
            </g>
        </g>
    </g>
</svg>
